<svg width="390" height="390" viewBox="0 0 390 390" fill="none" xmlns="http://www.w3.org/2000/svg">
<rect x="1.52588e-05" width="390" height="390" rx="42" fill="#0B0B0C"/>
<path fill-rule="evenodd" clip-rule="evenodd" d="M193.84 254.54C190.08 262.34 187 269.23 187 269.86C187 273 181.62 268.83 166.11 253.66C154.45 242.26 144.22 229.08 138.62 218.23C136.96 215.02 136.98 214.89 139.83 210.73C147.56 199.43 153.78 177.02 154.83 156.62L155.5 143.74L160.5 150C186.66 171.52 223.96 196.2 229.75 197.65C231.88 198.19 231.56 198.73 225.12 205.51C214.56 216.62 204.66 232.15 193.84 254.54Z" fill="#EBCC61"/>
<path fill-rule="evenodd" clip-rule="evenodd" d="M345.776 144.244C345.778 144.242 345.773 144.245 345.776 144.244Z" fill="#EBCC61"/>
<path d="M227.44 316.22C221.9 311.97 213.63 305.58 209.06 302C200.39 295.22 188.95 286.49 173.24 274.68C159.86 264.62 154.77 258.54 142.51 238C130.88 218.51 124.91 211.97 113.5 206.24C109.33 204.14 92.97 198.64 72.5 192.44C65.9 190.45 56.23 187.2 51 185.23C39.47 180.89 0 164.5 0 164.5C0 164.5 10.703 165.822 20.6 170.64C39.83 179.65 61.36 186.36 95.47 193.96C104.98 196.09 115.62 199.02 119.13 200.49C122.63 201.96 127.25 203.9 129.4 204.79L133.3 206.42L137.11 202.13C142 196.62 146.55 184.84 148 173.94C149.92 159.51 146.89 144.09 140.17 134.08C137.58 130.24 121.65 112.46 117.75 109.08C116.79 108.24 116 107.18 116 106.73C116 106.27 114.3 103.34 112.23 100.2C105.51 90.05 93.92 61.88 78.57 18.38C75.13 8.62997 75.93 1.5 76 0C76 0 78.83 13.9 81.31 20.5C86.82 35.16 89.42 41.05 97.18 56.5C107.77 77.6 114.01 86.92 130.5 106.28C134.9 111.45 141.36 119.34 144.85 123.81C161.62 145.29 190.28 167.81 216.5 180.1C225.51 184.32 238.72 188.96 242.2 189.12C244.6 189.23 297.34 164.76 313.59 156C389.02 117.37 390 118 390 118V120C390 120 369.141 131.551 345.789 144.236L345.776 144.244L345.759 144.252C329.055 153.326 313.486 161.784 310 163.81C305.33 166.54 289.92 175.68 275.77 184.13C261.61 192.58 247.21 201.08 243.77 203C235.71 207.5 214.19 228.81 207.57 238.85C196.19 256.09 191.46 268.82 194.06 275.19C195.37 278.4 208.74 292.31 229.62 312.2C251.891 333.272 289 390 289 390C289 390 236.339 319.25 227.44 316.22ZM193.84 254.54C190.08 262.34 187 269.23 187 269.86C187 273 181.62 268.83 166.11 253.66C154.45 242.26 144.22 229.08 138.62 218.23C136.96 215.02 136.98 214.89 139.83 210.73C147.56 199.43 153.78 177.02 154.83 156.62L155.5 143.74L160.5 150C186.66 171.52 223.96 196.2 229.75 197.65C231.88 198.19 231.56 198.73 225.12 205.51C214.56 216.62 204.66 232.15 193.84 254.54Z" fill="#EBCC61"/>
<path fill-rule="evenodd" clip-rule="evenodd" d="M193.84 254.54C190.08 262.34 187 269.23 187 269.86C187 273 181.62 268.83 166.11 253.66C154.45 242.26 144.22 229.08 138.62 218.23C136.96 215.02 136.98 214.89 139.83 210.73C147.56 199.43 153.78 177.02 154.83 156.62L155.5 143.74L160.5 150C186.66 171.52 223.96 196.2 229.75 197.65C231.88 198.19 231.56 198.73 225.12 205.51C214.56 216.62 204.66 232.15 193.84 254.54Z" fill="#0B0B0C"/>
</svg>
